<svg width="144.000000" height="36.000000" viewBox="0 0 144 36" fill="none" xmlns="http://www.w3.org/2000/svg" xmlns:xlink="http://www.w3.org/1999/xlink">
	<desc>
			Created with Pixso.
	</desc>
	<defs/>
	<circle id="Oval" cx="18.000000" cy="18.000000" r="18.000000" fill="#094B72" fill-opacity="1.000000"/>
	<circle id="Oval" cx="18.000000" cy="18.000000" r="18.000000" stroke="#979797" stroke-opacity="0" stroke-width="0.000000"/>
	<path id="C" d="M23.14 21.35L18.65 21.35L18.65 9.96L15.24 9.96L15.24 24L23.14 24L23.14 21.35Z" fill="#FFFFFF" fill-opacity="1.000000" fill-rule="evenodd"/>
	<g style="mix-blend-mode:normal">
		<path id="Lawliet" d="M103.11 12.37Q103.61 12.68 104.29 12.68Q104.93 12.68 105.41 12.4Q105.59 12.29 105.74 12.15Q106.03 11.88 106.17 11.56Q106.32 11.23 106.32 10.83Q106.32 10.4 106.15 10.04Q106 9.75 105.74 9.51Q105.58 9.36 105.39 9.25Q104.92 8.97 104.29 8.97Q103.62 8.97 103.13 9.28Q102.97 9.38 102.82 9.51Q102.57 9.75 102.42 10.04Q102.25 10.4 102.25 10.83Q102.25 11.23 102.4 11.56Q102.54 11.88 102.82 12.15Q102.96 12.27 103.11 12.37ZM98.59 25L98.59 10.2L95.18 10.2L95.18 25L98.59 25ZM58.14 22.35L53.65 22.35L53.65 10.96L50.24 10.96L50.24 25L58.14 25L58.14 22.35ZM130.02 25L130.02 22.09L128.8 22.09Q128.23 22.09 127.99 21.87Q127.76 21.66 127.76 21.16L127.76 16.67L130 16.67L130 13.83L127.76 13.83L127.76 11.11L124.34 11.11L124.34 13.83L122.98 13.83L122.98 16.67L124.34 16.67L124.34 21.11Q124.34 23.14 125.35 24.06Q125.36 24.07 125.38 24.09Q126.42 25 128.27 25L130.02 25ZM61.25 16.38Q60.6 17.68 60.6 19.39Q60.6 21.11 61.25 22.43Q61.78 23.51 62.64 24.18Q62.82 24.32 63.01 24.45Q63.49 24.75 64.02 24.92Q64.72 25.16 65.49 25.16Q66.68 25.16 67.56 24.68Q68.31 24.27 68.78 23.66Q68.87 23.54 68.96 23.41L68.96 25L72.37 25L72.37 13.83L68.96 13.83L68.96 15.41Q68.89 15.3 68.81 15.2Q68.35 14.56 67.58 14.16Q66.7 13.68 65.51 13.68Q64.64 13.68 63.87 13.96Q63.43 14.12 63.01 14.37Q62.82 14.5 62.64 14.63Q61.78 15.3 61.25 16.38ZM120.43 20.23Q120.49 19.72 120.49 19.23Q120.49 17.55 119.79 16.29Q119.41 15.62 118.88 15.12Q118.41 14.67 117.82 14.36Q117.81 14.35 117.79 14.34Q116.54 13.68 114.94 13.68Q113.28 13.68 112 14.37L112 14.37Q111.44 14.68 110.98 15.1Q110.4 15.65 110.01 16.38Q109.3 17.68 109.3 19.41Q109.3 21.16 110.01 22.46Q110.42 23.18 111 23.72Q111.45 24.15 112.02 24.46Q112.07 24.49 112.12 24.51Q113.36 25.16 114.94 25.16Q116.29 25.16 117.39 24.66Q118.27 24.26 118.92 23.61Q119.08 23.45 119.22 23.28Q119.61 22.81 119.87 22.29Q120.1 21.82 120.23 21.29L116.6 21.29Q116.38 21.77 116.01 22.03Q115.53 22.37 114.81 22.37Q114.28 22.37 113.85 22.16Q113.59 22.03 113.36 21.83Q113.32 21.79 113.29 21.75Q112.77 21.2 112.7 20.23L120.43 20.23ZM89.35 25L92.38 13.83L89.15 13.83L87.6 21.78L85.7 13.83L82.07 13.83L80.19 21.82L78.62 13.83L75.19 13.83L78.24 25L81.99 25L83.82 17.75L85.57 25L89.35 25ZM105.99 25L105.99 13.83L102.58 13.83L102.58 25L105.99 25ZM116.75 17.35Q117 17.77 117 18.33L112.71 18.33Q112.84 17.54 113.29 17.06Q113.36 16.99 113.44 16.92Q113.61 16.78 113.79 16.68Q114.27 16.42 114.9 16.42Q115.56 16.42 116.06 16.7Q116.24 16.8 116.4 16.94Q116.61 17.12 116.75 17.35ZM68.42 17.61Q68.96 18.31 68.96 19.41Q68.96 20.52 68.43 21.22Q68.34 21.33 68.24 21.44Q67.89 21.81 67.45 21.99Q67.02 22.17 66.51 22.17Q66.02 22.17 65.6 22Q65.15 21.81 64.78 21.43Q64.69 21.32 64.6 21.21Q64.07 20.5 64.07 19.39Q64.07 18.27 64.62 17.58Q64.69 17.48 64.78 17.39Q65.14 17.02 65.58 16.84Q66.01 16.66 66.51 16.66Q67.02 16.66 67.44 16.83Q67.88 17.02 68.24 17.4Q68.34 17.5 68.42 17.61Z" fill="#2D2F30" fill-opacity="1.000000" fill-rule="evenodd"/>
	</g>
</svg>
