<svg width="238" height="88" viewBox="0 0 238 88" fill="none" xmlns="http://www.w3.org/2000/svg">
<g clip-path="url(#clip0_17_373)">
<path d="M25.7996 19.8443C25.6584 19.5031 25.526 19.1443 25.3849 18.8381L24.7319 17.3768L24.7054 17.3506C22.7643 13.1506 20.6907 8.88058 18.4937 4.68058L18.4054 4.50558C18.1849 4.09433 17.9643 3.63933 17.7349 3.21933C17.4525 2.72058 17.179 2.18683 16.729 1.67933C16.2903 1.14832 15.7383 0.720494 15.1127 0.426728C14.4871 0.132961 13.8035 -0.0194206 13.1113 -0.0194206C12.4191 -0.0194206 11.7356 0.132961 11.11 0.426728C10.4844 0.720494 9.93232 1.14832 9.49368 1.67933C9.07898 2.18683 8.77015 2.72058 8.4878 3.21933C8.26721 3.67433 8.04663 4.12058 7.81721 4.53183L7.72898 4.70683C5.56721 8.90683 3.45839 13.1768 1.51721 17.3768L1.46427 17.4293C1.27016 17.8843 1.04074 18.3568 0.820155 18.8643C0.678979 19.1706 0.537802 19.5031 0.396626 19.8706C0.0154782 20.8329 -0.106234 21.8771 0.0434838 22.9003C0.193202 23.9234 0.609183 24.8902 1.25043 25.7054C1.89168 26.5206 2.73606 27.1561 3.70035 27.5491C4.66465 27.9421 5.71558 28.0792 6.74957 27.9468C7.74086 27.8174 8.6954 27.49 9.55545 26.9843C10.7025 26.3456 11.8054 25.4181 13.0407 24.0793C14.276 25.4181 15.4054 26.3456 16.526 26.9931C17.6037 27.6203 18.824 27.9665 20.0731 27.9993C21.5196 28.0053 22.9194 27.4921 24.0141 26.5545C25.1088 25.6168 25.8245 24.3181 26.029 22.8981C26.2653 21.8776 26.1853 20.8102 25.7996 19.8356V19.8443ZM13.129 21.2968C11.6113 19.3718 10.6231 17.6043 10.2878 16.0906C10.1489 15.5296 10.1189 14.9476 10.1996 14.3756C10.2613 13.9293 10.429 13.5356 10.6584 13.2031C11.1878 12.4418 12.1143 11.9693 13.129 11.9693C13.6109 11.9547 14.0889 12.059 14.5201 12.2728C14.9513 12.4866 15.3222 12.8033 15.5996 13.1943C15.829 13.5443 15.9966 13.9293 16.0496 14.3756C16.1378 14.8831 16.1025 15.4693 15.9613 16.0906C15.626 17.5781 14.6378 19.3631 13.129 21.2968ZM24.3702 22.5918C24.2699 23.3128 23.9809 23.9951 23.5319 24.5708C23.083 25.1465 22.4898 25.5955 21.8113 25.8731C21.1407 26.1531 20.3996 26.2318 19.676 26.1531C18.9702 26.0656 18.2643 25.8381 17.5407 25.4181C16.3394 24.6818 15.2592 23.7669 14.3378 22.7056C16.1907 20.4306 17.3113 18.3568 17.7349 16.5106C17.9378 15.6356 17.9643 14.8481 17.876 14.1218C17.7659 13.4335 17.507 12.7768 17.1172 12.1968C16.6722 11.5679 16.0781 11.0571 15.3873 10.7092C14.6965 10.3614 13.9301 10.1871 13.1554 10.2018C11.5231 10.2018 10.0672 10.9543 9.18486 12.1881C8.78766 12.7666 8.53096 13.4285 8.43486 14.1218C8.32016 14.8568 8.34663 15.6706 8.57604 16.5106C8.99957 18.3568 10.1466 20.4568 11.9731 22.7231C11.0673 23.8047 9.98459 24.7276 8.77015 25.4531C8.0378 25.8731 7.34074 26.0918 6.63486 26.1793C5.53711 26.3188 4.42823 26.0229 3.54924 25.3561C2.67025 24.6892 2.0922 23.7052 1.94074 22.6181C1.85251 21.9181 1.91427 21.2181 2.19663 20.4306C2.28486 20.1506 2.41721 19.8706 2.55839 19.5381C2.75251 19.0831 2.98192 18.6106 3.20251 18.1381L3.2378 18.0768C5.14368 13.9031 7.22604 9.64183 9.3878 5.46808L9.47604 5.29308C9.69662 4.87308 9.91721 4.42683 10.1466 4.00683C10.376 3.56058 10.6231 3.13183 10.9407 2.78183C11.2157 2.45635 11.5593 2.19459 11.9472 2.01499C12.3352 1.8354 12.7582 1.74232 13.1863 1.74232C13.6145 1.74232 14.0375 1.8354 14.4254 2.01499C14.8134 2.19459 15.157 2.45635 15.4319 2.78183C15.7407 3.13183 15.9966 3.56058 16.226 4.00683C16.4466 4.42683 16.6672 4.88183 16.8966 5.29308L16.9849 5.46808C19.1378 9.64183 21.2202 13.9031 23.1613 18.0768L23.1878 18.1031C23.4172 18.5581 23.6113 19.0656 23.8319 19.5031C23.9731 19.8443 24.1143 20.1156 24.2025 20.4043C24.3702 21.1918 24.4584 21.8918 24.3702 22.5918ZM36.6525 21.1043C35.9876 21.114 35.3291 20.975 34.7257 20.6978C34.1224 20.4207 33.5897 20.0123 33.1672 19.5031C32.2179 18.418 31.714 17.019 31.7554 15.5831C31.7409 14.1159 32.261 12.6928 33.2202 11.5756C33.6638 11.0599 34.2161 10.6469 34.838 10.3657C35.46 10.0845 36.1366 9.94195 36.8202 9.94808C37.4633 9.93062 38.1004 10.0757 38.6715 10.3695C39.2426 10.6634 39.729 11.0965 40.0849 11.6281L40.1731 10.2543H42.7496V20.8243H40.1643L40.076 19.2843C39.7091 19.8519 39.202 20.3171 38.6028 20.6356C38.0036 20.9541 37.3323 21.1155 36.6525 21.1043ZM37.3231 18.5843C37.8349 18.5843 38.2849 18.4443 38.7084 18.1906C39.0966 17.9106 39.4143 17.5431 39.6613 17.0968C39.8819 16.6506 39.9966 16.1168 39.9966 15.5218C40.031 15.0051 39.9296 14.4883 39.7022 14.022C39.4749 13.5558 39.1294 13.156 38.6996 12.8618C38.2866 12.6067 37.8097 12.4714 37.3231 12.4714C36.8365 12.4714 36.3596 12.6067 35.9466 12.8618C35.5584 13.1418 35.2407 13.5093 34.9937 13.9556C34.7603 14.4477 34.6456 14.9869 34.6584 15.5306C34.624 16.0474 34.7254 16.5641 34.9528 17.0304C35.1801 17.4967 35.5256 17.8964 35.9554 18.1906C36.3702 18.4443 36.8202 18.5843 37.3231 18.5843ZM47.1613 7.40183C47.1613 7.70808 47.1084 7.98808 46.9672 8.21558C46.826 8.43433 46.6319 8.63558 46.376 8.77558C46.1202 8.91558 45.8466 8.96808 45.5643 8.96808C45.2819 8.96808 44.9996 8.91558 44.7437 8.77558C44.5017 8.64198 44.2982 8.4492 44.1525 8.21558C44.0159 7.96632 43.9488 7.68538 43.9584 7.40183C43.9584 7.08683 44.0202 6.80683 44.1525 6.58808C44.2937 6.32558 44.4966 6.16808 44.7437 6.02808C44.9996 5.88808 45.2731 5.82683 45.5643 5.82683C45.8451 5.82041 46.1229 5.88638 46.3703 6.01828C46.6178 6.15017 46.8265 6.34349 46.976 6.57933C47.1044 6.83443 47.1681 7.11679 47.1613 7.40183ZM44.1613 20.7893V10.2368H46.9672V20.8068H44.1525L44.1613 20.7893ZM54.4672 13.0018V13.0368C54.3349 12.9756 54.1584 12.9493 54.026 12.9231C53.8496 12.8881 53.7084 12.8881 53.5407 12.8881C52.7554 12.8881 52.1643 13.1156 51.776 13.5881C51.3525 14.0693 51.1584 14.7431 51.1584 15.6093V20.7981H48.3437V10.2281H50.929L51.0172 11.8293C51.2996 11.2693 51.6349 10.8493 52.1113 10.5343C52.5853 10.2283 53.1432 10.0754 53.7084 10.0968C53.9113 10.0968 54.1054 10.1143 54.2731 10.1493C54.3613 10.1756 54.4143 10.1756 54.4672 10.2018V13.0018ZM55.5966 20.7893V5.89683H58.4025V11.5843C58.7996 11.0768 59.2496 10.6831 59.8143 10.3768C60.7083 9.94216 61.7239 9.81886 62.6972 10.0268C63.6705 10.2348 64.5448 10.7619 65.179 11.5231C66.1304 12.6104 66.6344 14.0129 66.5907 15.4518C66.6053 16.919 66.0851 18.3421 65.126 19.4593C64.6824 19.975 64.1301 20.388 63.5081 20.6692C62.8862 20.9504 62.2096 21.093 61.526 21.0868C60.8829 21.1043 60.2458 20.9593 59.6747 20.6654C59.1036 20.3715 58.6172 19.9384 58.2613 19.4068L58.1731 20.7806L55.5966 20.8068V20.7893ZM61.0231 18.5843C61.526 18.5843 61.976 18.4443 62.3996 18.1906C62.7878 17.9106 63.1054 17.5431 63.3525 17.0968C63.5819 16.6506 63.6878 16.1168 63.6878 15.5218C63.6878 14.9356 63.5819 14.4018 63.3525 13.9556C63.1208 13.5253 62.7952 13.1516 62.3996 12.8618C61.9866 12.6067 61.5097 12.4714 61.0231 12.4714C60.5365 12.4714 60.0596 12.6067 59.6466 12.8618C59.2496 13.1418 58.9407 13.5093 58.6849 13.9556C58.4515 14.4477 58.3367 14.9869 58.3496 15.5306C58.3152 16.0474 58.4166 16.5641 58.644 17.0304C58.8713 17.4967 59.2168 17.8964 59.6466 18.1906C60.0613 18.4443 60.5113 18.5843 61.0231 18.5843ZM67.6496 20.7981V10.2281H70.2349L70.3231 11.6018C70.648 11.0752 71.1088 10.6443 71.658 10.3535C72.2071 10.0628 72.8246 9.92281 73.4466 9.94808C74.1579 9.9359 74.857 10.1319 75.4565 10.5117C76.056 10.8914 76.5293 11.438 76.8172 12.0831C77.126 12.7481 77.2937 13.5706 77.2937 14.4893V20.8243H74.479V14.8568C74.479 14.1218 74.3113 13.5443 73.976 13.1156C73.6407 12.6956 73.1819 12.4681 72.5996 12.4681C72.176 12.4681 71.8055 12.5556 71.479 12.7481C71.1702 12.9493 70.9143 13.2031 70.7202 13.5618C70.5239 13.9245 70.4266 14.3317 70.4378 14.7431V20.7981H67.6496ZM78.6966 20.7981V5.88808H81.5113V11.5756C81.8926 11.0652 82.3885 10.6501 82.9598 10.363C83.5311 10.0759 84.1621 9.92488 84.8025 9.92183C85.4674 9.91218 86.1259 10.0511 86.7293 10.3283C87.3326 10.6055 87.8653 11.0139 88.2878 11.5231C89.2325 12.6103 89.7329 14.0086 89.6907 15.4431C89.7061 16.9104 89.1858 18.3337 88.226 19.4506C87.7824 19.9663 87.2301 20.3793 86.6081 20.6605C85.9862 20.9417 85.3096 21.0842 84.626 21.0781C83.9829 21.0955 83.3458 20.9505 82.7747 20.6566C82.2036 20.3627 81.7172 19.9296 81.3613 19.3981L81.2819 20.7718L78.6966 20.7981ZM84.1496 18.5843C84.6613 18.5843 85.1113 18.4443 85.526 18.1906C85.9231 17.9106 86.2319 17.5431 86.4878 17.0968C86.7084 16.6506 86.8231 16.1168 86.8231 15.5218C86.8575 15.0051 86.7561 14.4883 86.5287 14.022C86.3013 13.5558 85.9559 13.156 85.526 12.8618C85.113 12.6067 84.6362 12.4714 84.1496 12.4714C83.663 12.4714 83.1861 12.6067 82.7731 12.8618C82.3849 13.1418 82.0672 13.5093 81.8202 13.9556C81.5739 14.4433 81.4584 14.9857 81.4849 15.5306C81.4505 16.0474 81.5519 16.5641 81.7793 17.0304C82.0066 17.4967 82.3521 17.8964 82.7819 18.1906C83.1966 18.4443 83.6202 18.5843 84.1496 18.5843Z" fill="#FF385C"/>
</g>
<g clip-path="url(#clip1_17_373)">
<path d="M163.097 5.97276V12.7425H156.928V5.97276H154V22.1328H156.928V15.5829H163.097V22.1328H166.025V5.97276H163.097Z" fill="#33475B"/>
<path d="M175.397 16.9091C175.397 17.5567 175.142 18.1778 174.688 18.6358C174.233 19.0937 173.617 19.351 172.975 19.351C172.332 19.351 171.716 19.0937 171.262 18.6358C170.807 18.1778 170.552 17.5567 170.552 16.9091V9.98746H167.774V16.9091C167.774 18.2979 168.322 19.6299 169.296 20.612C170.27 21.5941 171.592 22.1458 172.97 22.1458C174.348 22.1458 175.669 21.5941 176.643 20.612C177.618 19.6299 178.165 18.2979 178.165 16.9091V9.98746H175.397V16.9091Z" fill="#33475B"/>
<path d="M195.979 10.7005C195.979 9.28171 196.91 8.83194 197.93 8.83194C198.752 8.83194 199.838 9.46249 200.549 10.2275L202.368 8.06689C201.46 6.82892 199.617 5.97276 198.109 5.97276C195.096 5.97276 192.917 7.75161 192.917 10.7005C192.917 16.1715 199.551 14.436 199.551 17.4977C199.551 18.4421 198.642 19.2765 197.6 19.2765C195.957 19.2765 195.425 18.4666 194.67 17.6105L192.651 19.7263C193.943 21.3244 195.535 22.1357 197.444 22.1357C200.306 22.1357 202.609 20.3352 202.609 17.5208C202.609 11.4467 195.974 13.334 195.974 10.7005" fill="#33475B"/>
<path d="M237.023 19.5513C235.381 19.5513 234.915 18.8354 234.915 17.7392V12.8871H237.466V10.4286H234.915V7.1847L232.099 8.45881V18.3423C232.099 20.8703 233.829 22.1444 236.202 22.1444C236.574 22.1512 236.946 22.1212 237.313 22.0547L238 19.505C237.69 19.5267 237.334 19.5484 237.023 19.5484" fill="#33475B"/>
<path d="M185.971 10.0685C184.595 10.0685 183.635 10.4705 182.706 11.3889V6.06966H179.924V15.9285C179.924 19.6193 182.572 22.1473 185.546 22.1473C188.846 22.1473 191.749 19.5745 191.749 16.1093C191.749 12.6876 189.077 10.0699 185.971 10.0699V10.0685ZM185.953 19.3257C185.329 19.3257 184.719 19.1391 184.2 18.7895C183.681 18.4399 183.276 17.943 183.037 17.3616C182.798 16.7802 182.736 16.1405 182.857 15.5233C182.979 14.9061 183.28 14.3392 183.721 13.8942C184.163 13.4493 184.725 13.1462 185.338 13.0235C185.95 12.9007 186.585 12.9637 187.161 13.2045C187.738 13.4453 188.231 13.8532 188.578 14.3764C188.925 14.8996 189.11 15.5147 189.11 16.144C189.11 16.9879 188.777 17.7971 188.185 18.3938C187.593 18.9905 186.791 19.3257 185.953 19.3257Z" fill="#33475B"/>
<path d="M216.179 15.9618C216.179 12.4909 213.282 9.92383 209.976 9.92383C207.002 9.92383 204.355 12.4518 204.355 16.1426V26.0072H207.137V20.6808C208.064 21.5977 209.025 22.0012 210.4 22.0012C213.506 22.0012 216.178 19.385 216.178 15.9618H216.179ZM213.545 15.9271C213.545 16.5564 213.36 17.1715 213.013 17.6947C212.666 18.218 212.173 18.6258 211.596 18.8666C211.019 19.1074 210.385 19.1704 209.772 19.0476C209.16 18.9249 208.598 18.6218 208.156 18.1769C207.715 17.7319 207.414 17.165 207.292 16.5478C207.171 15.9306 207.233 15.2909 207.472 14.7095C207.711 14.1281 208.115 13.6312 208.635 13.2816C209.154 12.932 209.764 12.7454 210.388 12.7454C211.225 12.7454 212.028 13.0806 212.62 13.6773C213.212 14.274 213.545 15.0832 213.545 15.9271Z" fill="#33475B"/>
<path d="M225.167 9.78789V6.97065C225.536 6.79669 225.849 6.52056 226.069 6.1744C226.289 5.82825 226.406 5.4263 226.408 5.01537V4.95029C226.408 4.37494 226.181 3.82317 225.778 3.41634C225.374 3.00951 224.827 2.78096 224.256 2.78096H224.191C223.621 2.78096 223.073 3.00951 222.67 3.41634C222.266 3.82317 222.039 4.37494 222.039 4.95029V5.01537C222.041 5.4263 222.159 5.82825 222.378 6.1744C222.598 6.52056 222.911 6.79669 223.28 6.97065V9.78789C222.219 9.95159 221.219 10.3951 220.382 11.0736L212.717 5.05586C212.771 4.85742 212.8 4.65282 212.803 4.447C212.804 3.96354 212.663 3.49069 212.397 3.08825C212.131 2.68581 211.753 2.37187 211.31 2.18613C210.867 2.00039 210.38 1.9512 209.909 2.04478C209.438 2.13836 209.006 2.37051 208.666 2.71186C208.327 3.05322 208.095 3.48843 208.001 3.96247C207.907 4.43651 207.954 4.92807 208.137 5.37498C208.32 5.82188 208.63 6.20405 209.029 6.47316C209.427 6.74226 209.896 6.8862 210.376 6.88677C210.795 6.88488 211.207 6.77219 211.569 6.55993L219.118 12.4793C218.44 13.5119 218.086 14.7265 218.102 15.9647C218.119 17.203 218.505 18.4075 219.211 19.4212L216.915 21.7351C216.73 21.6753 216.536 21.6437 216.341 21.6411C215.948 21.6414 215.563 21.7593 215.236 21.98C214.908 22.2007 214.653 22.5142 214.503 22.8809C214.352 23.2477 214.313 23.6512 214.39 24.0404C214.467 24.4297 214.656 24.7872 214.935 25.0679C215.213 25.3485 215.568 25.5397 215.954 25.6172C216.34 25.6947 216.741 25.655 217.104 25.5033C217.468 25.3515 217.779 25.0945 217.998 24.7646C218.217 24.4347 218.334 24.0468 218.334 23.6499C218.332 23.4535 218.301 23.2585 218.241 23.0714L220.512 20.782C221.253 21.3565 222.114 21.7525 223.03 21.9397C223.946 22.1269 224.892 22.1003 225.797 21.8619C226.701 21.6236 227.539 21.1799 228.246 20.5647C228.954 19.9496 229.513 19.1793 229.88 18.3129C230.246 17.4466 230.412 16.5071 230.363 15.5664C230.313 14.6257 230.051 13.7089 229.597 12.886C229.142 12.0632 228.506 11.3562 227.738 10.8191C226.971 10.2821 226.091 9.92938 225.167 9.78789ZM224.226 19.0524C223.605 19.0518 222.997 18.8656 222.481 18.5173C221.965 18.169 221.562 17.6742 221.325 17.0955C221.087 16.5168 221.026 15.8802 221.147 15.266C221.268 14.6519 221.568 14.0878 222.007 13.6451C222.447 13.2024 223.006 12.9009 223.616 12.7787C224.225 12.6566 224.857 12.7193 225.431 12.9589C226.005 13.1985 226.496 13.6042 226.841 14.1248C227.186 14.6454 227.371 15.2575 227.371 15.8837C227.371 16.7237 227.04 17.5293 226.451 18.1233C225.861 18.7172 225.062 19.0509 224.229 19.0509" fill="#FF7A59"/>
</g>
<g clip-path="url(#clip2_17_373)">
<path d="M189.746 74.3591C189.746 78.2457 186.661 81.1096 182.875 81.1096C179.089 81.1096 176.004 78.2457 176.004 74.3591C176.004 70.4452 179.089 67.6087 182.875 67.6087C186.661 67.6087 189.746 70.4452 189.746 74.3591ZM186.738 74.3591C186.738 71.9304 184.95 70.2687 182.875 70.2687C180.8 70.2687 179.012 71.9304 179.012 74.3591C179.012 76.7635 180.8 78.4496 182.875 78.4496C184.95 78.4496 186.738 76.7604 186.738 74.3591Z" fill="#EA4335"/>
<path d="M204.57 74.3591C204.57 78.2457 201.485 81.1096 197.698 81.1096C193.912 81.1096 190.827 78.2457 190.827 74.3591C190.827 70.4483 193.912 67.6087 197.698 67.6087C201.485 67.6087 204.57 70.4452 204.57 74.3591ZM201.562 74.3591C201.562 71.9304 199.774 70.2687 197.698 70.2687C195.623 70.2687 193.835 71.9304 193.835 74.3591C193.835 76.7635 195.623 78.4496 197.698 78.4496C199.774 78.4496 201.562 76.7604 201.562 74.3591Z" fill="#FBBC05"/>
<path d="M218.776 68.0165V80.1357C218.776 85.1209 215.792 87.157 212.266 87.157C208.946 87.157 206.948 84.9687 206.194 83.1791L208.813 82.1048C209.279 83.2035 210.422 84.5 212.263 84.5C214.52 84.5 215.919 83.1274 215.919 80.5435V79.5726H215.814C215.141 80.3913 213.844 81.1065 212.207 81.1065C208.782 81.1065 205.645 78.1665 205.645 74.3835C205.645 70.573 208.782 67.6087 212.207 67.6087C213.841 67.6087 215.138 68.3239 215.814 69.1183H215.919V68.0196H218.776V68.0165ZM216.132 74.3835C216.132 72.0065 214.523 70.2687 212.476 70.2687C210.4 70.2687 208.662 72.0065 208.662 74.3835C208.662 76.7361 210.4 78.4496 212.476 78.4496C214.523 78.4496 216.132 76.7361 216.132 74.3835Z" fill="#4285F4"/>
<path d="M223.485 60.913V80.6956H220.551V60.913H223.485Z" fill="#34A853"/>
<path d="M234.918 76.5809L237.253 78.1148C236.499 79.2135 234.683 81.1065 231.546 81.1065C227.655 81.1065 224.748 78.1422 224.748 74.3561C224.748 70.3417 227.679 67.6057 231.209 67.6057C234.764 67.6057 236.502 70.3935 237.071 71.9L237.382 72.667L228.226 76.4043C228.927 77.7587 230.017 78.4496 231.546 78.4496C233.077 78.4496 234.14 77.707 234.918 76.5809ZM227.732 74.1522L233.853 71.6474C233.516 70.8043 232.503 70.217 231.311 70.217C229.782 70.217 227.655 71.547 227.732 74.1522Z" fill="#EA4335"/>
<path d="M164.898 72.603V69.7391H174.691C174.787 70.2383 174.836 70.8287 174.836 71.4678C174.836 73.6165 174.24 76.2735 172.32 78.1665C170.451 80.0839 168.064 81.1065 164.902 81.1065C159.04 81.1065 154.111 76.4013 154.111 70.6248C154.111 64.8483 159.04 60.143 164.902 60.143C168.144 60.143 170.454 61.397 172.19 63.0313L170.139 65.0522C168.895 63.9017 167.208 63.007 164.898 63.007C160.618 63.007 157.271 66.4065 157.271 70.6248C157.271 74.843 160.618 78.2426 164.898 78.2426C167.675 78.2426 169.256 77.1439 170.269 76.1457C171.09 75.3361 171.631 74.1796 171.844 72.6L164.898 72.603Z" fill="#4285F4"/>
</g>
<g clip-path="url(#clip3_17_373)">
<path d="M43.0636 75.9752L42.3364 78.031H42.2758C42.1546 77.5674 41.9324 76.862 41.5689 76.0155L37.6705 66.2403H33.853V81.8202H36.3778V72.2062C36.3778 71.6016 36.3778 70.9163 36.3576 70.0698C36.3374 69.6465 36.297 69.324 36.2768 69.0822H36.3374C36.4586 69.6868 36.6 70.1302 36.701 70.4124L41.3871 81.7798H43.1646L47.8102 70.3116C47.9112 70.0496 48.0122 69.5256 48.1132 69.0822H48.1738C48.1132 70.231 48.0728 71.2589 48.0526 71.8837V81.7597H50.7391V66.2H47.0629L43.0636 75.9752ZM53.2841 70.5938H55.9099V81.7597H53.2841V70.5938ZM54.6172 65.8775C54.1728 65.8775 53.8093 66.0388 53.5063 66.3209C53.2033 66.6031 53.0417 66.9659 53.0417 67.4093C53.0417 67.8326 53.2033 68.1953 53.5063 68.4775C53.8093 68.7597 54.1728 68.9008 54.6172 68.9008C55.0616 68.9008 55.4453 68.7395 55.7281 68.4775C56.0311 68.1953 56.1927 67.8326 56.1927 67.4093C56.1927 66.986 56.0311 66.6233 55.7281 66.3209C55.4655 66.0388 55.0818 65.8775 54.6172 65.8775ZM65.2215 70.493C64.7367 70.3922 64.2318 70.3318 63.747 70.3318C62.5553 70.3318 61.4645 70.5938 60.5556 71.1178C59.6467 71.6419 58.9195 72.3674 58.4549 73.2744C57.9702 74.2016 57.7278 75.2698 57.7278 76.4992C57.7278 77.5674 57.9702 78.5147 58.4347 79.3814C58.8993 80.2279 59.5457 80.9132 60.4142 81.3767C61.2424 81.8403 62.2119 82.0822 63.3026 82.0822C64.5549 82.0822 65.6255 81.8202 66.4738 81.3364L66.494 81.3163V78.8977L66.393 78.9783C66.0093 79.2605 65.5649 79.5023 65.1205 79.6434C64.6559 79.8047 64.2318 79.8853 63.8682 79.8853C62.8179 79.8853 61.9897 79.5829 61.404 78.9178C60.798 78.2729 60.495 77.386 60.495 76.2775C60.495 75.1287 60.798 74.2217 61.4242 73.5566C62.0503 72.8915 62.8785 72.5488 63.8884 72.5488C64.7367 72.5488 65.6053 72.831 66.393 73.3953L66.494 73.476V70.9163L66.4738 70.8961C66.1304 70.755 65.7467 70.5938 65.2215 70.493ZM73.8867 70.4124C73.2404 70.4124 72.6344 70.614 72.1093 71.0372C71.6649 71.4 71.3619 71.924 71.0993 72.5488H71.0791V70.5938H68.4533V81.7597H71.0791V76.0558C71.0791 75.0884 71.2811 74.2822 71.7255 73.6977C72.1698 73.093 72.7354 72.7907 73.4222 72.7907C73.6646 72.7907 73.9069 72.8512 74.2099 72.8915C74.4927 72.9721 74.6947 73.0527 74.8361 73.1535L74.9371 73.2341V70.614L74.8765 70.5938C74.6947 70.4729 74.3311 70.4124 73.8867 70.4124ZM81.0371 70.3519C79.199 70.3519 77.7245 70.8961 76.6944 71.9643C75.644 73.0326 75.1391 74.5039 75.1391 76.3581C75.1391 78.0915 75.6642 79.5023 76.6742 80.5302C77.6841 81.538 79.0576 82.062 80.7745 82.062C82.5722 82.062 84.0063 81.5178 85.0364 80.4295C86.0867 79.3411 86.5917 77.8899 86.5917 76.0961C86.5917 74.3225 86.1069 72.9116 85.1172 71.8837C84.1679 70.8558 82.7742 70.3519 81.0371 70.3519ZM83.1377 78.938C82.653 79.5628 81.8854 79.8651 80.9361 79.8651C79.9867 79.8651 79.2192 79.5628 78.6738 78.8977C78.1285 78.2729 77.8659 77.3659 77.8659 76.2171C77.8659 75.0279 78.1487 74.1209 78.6738 73.476C79.2192 72.831 79.9665 72.5085 80.9159 72.5085C81.845 72.5085 82.5722 72.8109 83.0973 73.4357C83.6225 74.0605 83.9053 74.9674 83.9053 76.1566C83.8649 77.3659 83.6427 78.3132 83.1377 78.938ZM92.4493 75.2295C91.6212 74.8868 91.096 74.6248 90.8536 74.4031C90.6516 74.2016 90.5506 73.9194 90.5506 73.5566C90.5506 73.2543 90.6718 72.9519 90.9748 72.7504C91.2778 72.5488 91.6212 72.4481 92.1261 72.4481C92.5705 72.4481 93.0351 72.5287 93.4794 72.6496C93.9238 72.7705 94.3278 72.9519 94.651 73.1938L94.752 73.2744V70.8155L94.6914 70.7953C94.3884 70.6744 93.9844 70.5535 93.4996 70.4527C93.0149 70.3721 92.5705 70.3318 92.2069 70.3318C90.9546 70.3318 89.9245 70.6341 89.1165 71.2992C88.3086 71.924 87.9248 72.7705 87.9248 73.7581C87.9248 74.2822 88.0056 74.7457 88.1874 75.1287C88.3692 75.5116 88.6318 75.8744 88.9953 76.1767C89.3589 76.4589 89.8841 76.7814 90.6112 77.0837C91.2172 77.3457 91.6818 77.5473 91.9645 77.7085C92.2473 77.8698 92.4291 78.0512 92.5705 78.1922C92.6715 78.3535 92.7321 78.555 92.7321 78.8171C92.7321 79.5628 92.1665 79.9256 91.0152 79.9256C90.5708 79.9256 90.1063 79.845 89.5609 79.6636C89.0155 79.4822 88.5106 79.2202 88.0864 78.9178L87.9854 78.8372V81.3969L88.046 81.4171C88.4298 81.5985 88.8943 81.7194 89.4599 81.8605C90.0255 81.9612 90.5304 82.0419 90.9748 82.0419C92.3281 82.0419 93.439 81.7395 94.2268 81.0744C95.0347 80.4295 95.4589 79.6031 95.4589 78.5349C95.4589 77.7891 95.2569 77.124 94.8126 76.6202C94.2268 76.1364 93.4996 75.6326 92.4493 75.2295ZM102.387 70.3519C100.549 70.3519 99.0745 70.8961 98.0443 71.9643C97.0142 73.0326 96.4891 74.5039 96.4891 76.3581C96.4891 78.0915 97.0142 79.5023 98.0241 80.5302C99.0341 81.538 100.408 82.062 102.124 82.062C103.922 82.062 105.356 81.5178 106.386 80.4295C107.437 79.3411 107.942 77.8899 107.942 76.0961C107.942 74.3225 107.457 72.9116 106.467 71.8837C105.518 70.8558 104.124 70.3519 102.387 70.3519ZM104.468 78.938C103.983 79.5628 103.215 79.8651 102.266 79.8651C101.296 79.8651 100.549 79.5628 100.004 78.8977C99.4583 78.2729 99.1957 77.3659 99.1957 76.2171C99.1957 75.0279 99.4785 74.1209 100.004 73.476C100.549 72.831 101.296 72.5085 102.246 72.5085C103.155 72.5085 103.902 72.8109 104.427 73.4357C104.952 74.0605 105.235 74.9674 105.235 76.1566C105.235 77.3659 104.972 78.3132 104.468 78.938ZM121.98 72.7504V70.5938H119.334V67.2884L119.253 67.3085L116.748 68.0543L116.688 68.0744V70.5938H112.729V69.1829C112.729 68.538 112.89 68.0341 113.173 67.7116C113.456 67.3891 113.88 67.2279 114.405 67.2279C114.769 67.2279 115.153 67.3085 115.577 67.4899L115.678 67.5504V65.2729L115.617 65.2527C115.254 65.1318 114.769 65.0512 114.143 65.0512C113.355 65.0512 112.668 65.2326 112.042 65.5349C111.416 65.8775 110.951 66.3411 110.608 66.9659C110.265 67.5705 110.083 68.2558 110.083 69.0419V70.5938H108.245V72.7302H110.083V81.7597H112.729V72.7504H116.688V78.4946C116.688 80.8527 117.799 82.0419 120.021 82.0419C120.384 82.0419 120.768 81.9814 121.131 81.9209C121.515 81.8403 121.798 81.7395 121.96 81.6589L121.98 81.6388V79.4822L121.879 79.5628C121.717 79.6636 121.576 79.7442 121.333 79.8047C121.131 79.8651 120.95 79.8853 120.808 79.8853C120.283 79.8853 119.92 79.7643 119.657 79.462C119.415 79.1798 119.293 78.7163 119.293 78.031V72.7504H121.98Z" fill="#737373"/>
<path d="M0 61H12.3818V73.355H0V61Z" fill="#F25022"/>
<path d="M13.6744 61H26.0562V73.355H13.6744V61Z" fill="#7FBA00"/>
<path d="M0 74.645H12.3818V87H0V74.645Z" fill="#00A4EF"/>
<path d="M13.6744 74.645H26.0562V87H13.6744V74.645Z" fill="#FFB900"/>
</g>
<defs>
<clipPath id="clip0_17_373">
<rect width="90" height="28" fill="white"/>
</clipPath>
<clipPath id="clip1_17_373">
<rect width="84" height="24" fill="white" transform="translate(154 2)"/>
</clipPath>
<clipPath id="clip2_17_373">
<rect width="84" height="28" fill="white" transform="translate(154 60)"/>
</clipPath>
<clipPath id="clip3_17_373">
<rect width="122" height="26" fill="white" transform="translate(0 61)"/>
</clipPath>
</defs>
</svg>
