<svg width="19.999939" height="20.000000" viewBox="0 0 19.9999 20" fill="none" xmlns="http://www.w3.org/2000/svg" xmlns:xlink="http://www.w3.org/1999/xlink">
	<desc>
			Created with Pixso.
	</desc>
	<defs/>
	<path id="Vector" d="M13 13L19 19L13 13ZM14.46 10.67C14.11 11.52 13.59 12.29 12.94 12.94C12.29 13.59 11.52 14.11 10.67 14.46C9.82 14.81 8.91 15 8 15C7.08 15 6.17 14.81 5.32 14.46C4.47 14.11 3.7 13.59 3.05 12.94C2.4 12.29 1.88 11.52 1.53 10.67C1.18 9.82 1 8.91 1 8C1 6.14 1.73 4.36 3.05 3.05C4.36 1.73 6.14 1 8 1C9.85 1 11.63 1.73 12.94 3.05C14.26 4.36 15 6.14 15 8C15 8.91 14.81 9.82 14.46 10.67Z" stroke="#2D2F30" stroke-opacity="1.000000" stroke-width="2.000000" stroke-linejoin="round"/>
</svg>
